<svg width="64" height="64" viewBox="0 0 64 64" fill="none" xmlns="http://www.w3.org/2000/svg">
<path d="M56 0C60.4183 0 64 3.58172 64 8V56C64 60.4183 60.4183 64 56 64H8C3.58172 64 0 60.4183 0 56V8C0 3.58172 3.58172 0 8 0H56Z" fill="#262626"/>
<path d="M56 0C60.4183 0 64 3.58172 64 8V56C64 60.4183 60.4183 64 56 64H8C3.58172 64 0 60.4183 0 56V8C0 3.58172 3.58172 0 8 0H56Z" stroke="#E5E7EB"/>
<path d="M47 44H17V20H47V44Z" stroke="#E5E7EB"/>
<g clip-path="url(#clip0_55_251)">
<path d="M32 21.5C31.6203 21.5 31.2453 21.5656 30.8891 21.6922L17.7406 26.4406C17.2953 26.6047 17 27.0266 17 27.5C17 27.9734 17.2953 28.3953 17.7406 28.5594L20.4547 29.5391C19.6859 30.7484 19.25 32.1781 19.25 33.6828V35C19.25 36.3313 18.7437 37.7047 18.2047 38.7875C17.9 39.3969 17.5531 39.9969 17.15 40.55C17 40.7516 16.9578 41.0141 17.0422 41.2531C17.1266 41.4922 17.3234 41.6703 17.5672 41.7313L20.5672 42.4813C20.7641 42.5328 20.975 42.4953 21.1484 42.3875C21.3219 42.2797 21.4437 42.1016 21.4812 41.9C21.8844 39.8938 21.6828 38.0938 21.3828 36.8047C21.2328 36.1391 21.0312 35.4594 20.75 34.8359V33.6828C20.75 32.2672 21.2281 30.9312 22.0578 29.8625C22.6625 29.1359 23.4453 28.55 24.3641 28.1891L31.7234 25.2969C32.1078 25.1469 32.5437 25.3344 32.6937 25.7188C32.8437 26.1031 32.6562 26.5391 32.2719 26.6891L24.9125 29.5812C24.3312 29.8109 23.8203 30.1625 23.4031 30.5938L30.8844 33.2938C31.2406 33.4203 31.6156 33.4859 31.9953 33.4859C32.375 33.4859 32.75 33.4203 33.1062 33.2938L46.2594 28.5594C46.7047 28.4 47 27.9734 47 27.5C47 27.0266 46.7047 26.6047 46.2594 26.4406L33.1109 21.6922C32.7547 21.5656 32.3797 21.5 32 21.5ZM23 39.125C23 40.7797 27.0312 42.5 32 42.5C36.9687 42.5 41 40.7797 41 39.125L40.2828 32.3094L33.6172 34.7188C33.0969 34.9062 32.5484 35 32 35C31.4516 35 30.8984 34.9062 30.3828 34.7188L23.7172 32.3094L23 39.125Z" fill="white"/>
</g>
<defs>
<clipPath id="clip0_55_251">
<path d="M17 20H47V44H17V20Z" fill="white"/>
</clipPath>
</defs>
</svg>
